# xmcd CD database file
#
# Track frame offsets:
#	150
#	14460
#	35847
#	50257
#
# Disc length: 834 seconds
#
# Revision: 0
# Processed by: cddbd v1.5PL3 Copyright (c) Steve Scherf et al.
# Submitted via: CDex 1.51
#
DISCID=2d034004
DTITLE=THE LOOSE DOGS - 8
DYEAR=1900
DGENRE=J-Pop
TTITLE0=ドーナツ化現象
TTITLE1=トレインライダー
TTITLE2=ビルディング
TTITLE3=good bye
EXTD=
EXTT0=
EXTT1=
EXTT2=
EXTT3=
PLAYORDER=
